<svg width="73" height="73" viewBox="0 0 73 73" fill="none" xmlns="http://www.w3.org/2000/svg">
<g filter="url(#filter0_d_39_8)">
<path d="M33.3821 65.4392C51.3832 65.4392 65.976 50.9785 65.976 33.1404C65.976 15.3022 51.3832 0.841553 33.3821 0.841553C15.3809 0.841553 0.788086 15.3022 0.788086 33.1404C0.788086 50.9785 15.3809 65.4392 33.3821 65.4392Z" fill="url(#paint0_linear_39_8)"/>
<path d="M33.1633 59.7045C47.8959 59.7045 59.839 47.8695 59.839 33.2704C59.839 18.6712 47.8959 6.83618 33.1633 6.83618C18.4307 6.83618 6.48755 18.6712 6.48755 33.2704C6.48755 47.8695 18.4307 59.7045 33.1633 59.7045Z" stroke="url(#paint1_linear_39_8)" stroke-width="0.985349"/>
<path d="M31.2567 9.1503V13.0698H29.3291V9.1503H31.2567ZM31.0254 30.1358V33.567H29.1106V30.1358H31.0254ZM33.5956 26.075C33.5956 25.5609 33.4799 25.0983 33.2486 24.6871C33.0173 24.2758 32.6361 23.8989 32.1049 23.5562C31.5737 23.2135 30.8626 22.8965 29.9716 22.6052C28.8922 22.2711 27.9583 21.8641 27.1701 21.3844C26.3905 20.9046 25.7865 20.3092 25.3582 19.5981C24.9384 18.887 24.7285 18.026 24.7285 17.0151C24.7285 15.9613 24.9555 15.0532 25.4096 14.2907C25.8636 13.5282 26.5062 12.9413 27.3372 12.5301C28.1682 12.1189 29.1449 11.9132 30.2672 11.9132C31.1411 11.9132 31.9207 12.046 32.6061 12.3116C33.2915 12.5686 33.8697 12.9542 34.3409 13.4682C34.8207 13.9822 35.1848 14.6119 35.4333 15.3573C35.6903 16.1026 35.8188 16.9637 35.8188 17.9403H33.4542C33.4542 17.3663 33.3857 16.8394 33.2486 16.3597C33.1115 15.8799 32.9059 15.4644 32.6318 15.1131C32.3576 14.7533 32.0235 14.4791 31.6294 14.2907C31.2353 14.0936 30.7812 13.9951 30.2672 13.9951C29.5476 13.9951 28.9521 14.1193 28.4809 14.3678C28.0183 14.6162 27.6756 14.9675 27.4529 15.4215C27.2301 15.867 27.1187 16.3854 27.1187 16.9765C27.1187 17.5248 27.2301 18.0046 27.4529 18.4158C27.6756 18.827 28.0526 19.1997 28.5837 19.5338C29.1235 19.8594 29.8645 20.1807 30.8069 20.4977C31.9121 20.8489 32.8502 21.2644 33.6213 21.7442C34.3924 22.2154 34.9792 22.798 35.3819 23.4919C35.7845 24.1773 35.9859 25.0297 35.9859 26.0492C35.9859 27.1544 35.7374 28.0883 35.2405 28.8507C34.7436 29.6047 34.0454 30.1787 33.1458 30.5728C32.2462 30.9669 31.1925 31.1639 29.9845 31.1639C29.2563 31.1639 28.5366 31.0654 27.8255 30.8683C27.1145 30.6713 26.4719 30.35 25.8979 29.9045C25.3239 29.4505 24.8655 28.855 24.5229 28.1182C24.1802 27.3729 24.0088 26.4605 24.0088 25.381H26.3991C26.3991 26.1092 26.5019 26.7132 26.7075 27.193C26.9217 27.6642 27.2044 28.0411 27.5557 28.3239C27.9069 28.598 28.2925 28.7951 28.7122 28.915C29.1406 29.0264 29.5647 29.0821 29.9845 29.0821C30.7555 29.0821 31.4067 28.9621 31.9378 28.7222C32.4776 28.4738 32.8888 28.1225 33.1715 27.6685C33.4542 27.2144 33.5956 26.6832 33.5956 26.075Z" fill="#EFBC3E"/>
</g>
<defs>
<filter id="filter0_d_39_8" x="0.788086" y="0.841553" width="72.188" height="71.5977" filterUnits="userSpaceOnUse" color-interpolation-filters="sRGB">
<feFlood flood-opacity="0" result="BackgroundImageFix"/>
<feColorMatrix in="SourceAlpha" type="matrix" values="0 0 0 0 0 0 0 0 0 0 0 0 0 0 0 0 0 0 127 0" result="hardAlpha"/>
<feOffset dx="4" dy="4"/>
<feGaussianBlur stdDeviation="1.5"/>
<feComposite in2="hardAlpha" operator="out"/>
<feColorMatrix type="matrix" values="0 0 0 0 0 0 0 0 0 0 0 0 0 0 0 0 0 0 0.25 0"/>
<feBlend mode="normal" in2="BackgroundImageFix" result="effect1_dropShadow_39_8"/>
<feBlend mode="normal" in="SourceGraphic" in2="effect1_dropShadow_39_8" result="shape"/>
</filter>
<linearGradient id="paint0_linear_39_8" x1="2903.61" y1="6387.61" x2="5642.69" y2="2270.35" gradientUnits="userSpaceOnUse">
<stop stop-color="#F4BB2E"/>
<stop offset="1" stop-color="#EFBC3E"/>
</linearGradient>
<linearGradient id="paint1_linear_39_8" x1="2925.35" y1="2944.73" x2="4931.36" y2="2944.73" gradientUnits="userSpaceOnUse">
<stop stop-color="#F9DA8E"/>
<stop offset="0.9999" stop-color="#F9FE15"/>
<stop offset="1" stop-color="#7A5BF5"/>
</linearGradient>
</defs>
</svg>
