<svg width="38" height="38" viewBox="0 0 38 38" fill="none" xmlns="http://www.w3.org/2000/svg">
<g filter="url(#filter0_d_39_16)">
<path d="M15.5929 30.586C24.0702 30.586 30.9424 23.776 30.9424 15.3755C30.9424 6.975 24.0702 0.165039 15.5929 0.165039C7.1156 0.165039 0.243408 6.975 0.243408 15.3755C0.243408 23.776 7.1156 30.586 15.5929 30.586Z" fill="url(#paint0_linear_39_16)"/>
<path d="M15.4762 27.8847C22.4158 27.8847 28.0415 22.31 28.0415 15.4332C28.0415 8.55642 22.4158 2.98169 15.4762 2.98169C8.53657 2.98169 2.91089 8.55642 2.91089 15.4332C2.91089 22.31 8.53657 27.8847 15.4762 27.8847Z" stroke="url(#paint1_linear_39_16)" stroke-width="0.985349"/>
<path d="M14.5851 4.76977V6.61581H13.6772V4.76977H14.5851ZM14.4761 14.6536V16.2697H13.5743V14.6536H14.4761ZM15.6866 12.741C15.6866 12.4989 15.6322 12.281 15.5232 12.0873C15.4143 11.8937 15.2347 11.7161 14.9845 11.5547C14.7344 11.3933 14.3994 11.244 13.9798 11.1068C13.4714 10.9495 13.0316 10.7578 12.6603 10.5318C12.2931 10.3059 12.0087 10.0254 11.8069 9.69052C11.6092 9.35561 11.5103 8.95009 11.5103 8.47395C11.5103 7.97764 11.6173 7.54993 11.8311 7.19081C12.045 6.83169 12.3476 6.55529 12.739 6.3616C13.1304 6.16792 13.5904 6.07108 14.119 6.07108C14.5306 6.07108 14.8978 6.13362 15.2206 6.25871C15.5434 6.37976 15.8157 6.56134 16.0377 6.80344C16.2636 7.04554 16.4351 7.34212 16.5521 7.69317C16.6732 8.04422 16.7337 8.44974 16.7337 8.90974H15.62C15.62 8.63939 15.5878 8.39124 15.5232 8.16527C15.4586 7.93931 15.3618 7.74361 15.2327 7.57817C15.1036 7.4087 14.9462 7.27958 14.7606 7.19081C14.575 7.098 14.3611 7.0516 14.119 7.0516C13.7801 7.0516 13.4996 7.11011 13.2777 7.22712C13.0598 7.34414 12.8984 7.50958 12.7935 7.72343C12.6886 7.93326 12.6361 8.17738 12.6361 8.4558C12.6361 8.71404 12.6886 8.94 12.7935 9.13369C12.8984 9.32737 13.0759 9.50289 13.3261 9.66026C13.5803 9.81359 13.9294 9.96491 14.3732 10.1142C14.8937 10.2796 15.3356 10.4753 15.6987 10.7013C16.0619 10.9232 16.3383 11.1976 16.5279 11.5245C16.7176 11.8473 16.8124 12.2487 16.8124 12.7289C16.8124 13.2494 16.6954 13.6893 16.4614 14.0484C16.2273 14.4035 15.8985 14.6738 15.4748 14.8594C15.0511 15.045 14.5548 15.1378 13.9858 15.1378C13.6429 15.1378 13.3039 15.0914 12.969 14.9986C12.6341 14.9058 12.3315 14.7545 12.0611 14.5447C11.7908 14.3308 11.5749 14.0504 11.4135 13.7034C11.2521 13.3523 11.1714 12.9226 11.1714 12.4142H12.2972C12.2972 12.7572 12.3456 13.0416 12.4424 13.2676C12.5433 13.4895 12.6765 13.6671 12.8419 13.8002C13.0073 13.9293 13.1889 14.0222 13.3866 14.0786C13.5884 14.1311 13.7881 14.1573 13.9858 14.1573C14.349 14.1573 14.6557 14.1008 14.9058 13.9879C15.1601 13.8708 15.3537 13.7054 15.4869 13.4915C15.62 13.2777 15.6866 13.0275 15.6866 12.741Z" fill="#EFBC3E"/>
</g>
<defs>
<filter id="filter0_d_39_16" x="0.243408" y="0.165039" width="37.699" height="37.4209" filterUnits="userSpaceOnUse" color-interpolation-filters="sRGB">
<feFlood flood-opacity="0" result="BackgroundImageFix"/>
<feColorMatrix in="SourceAlpha" type="matrix" values="0 0 0 0 0 0 0 0 0 0 0 0 0 0 0 0 0 0 127 0" result="hardAlpha"/>
<feOffset dx="4" dy="4"/>
<feGaussianBlur stdDeviation="1.5"/>
<feComposite in2="hardAlpha" operator="out"/>
<feColorMatrix type="matrix" values="0 0 0 0 0 0 0 0 0 0 0 0 0 0 0 0 0 0 0.25 0"/>
<feBlend mode="normal" in2="BackgroundImageFix" result="effect1_dropShadow_39_16"/>
<feBlend mode="normal" in="SourceGraphic" in2="effect1_dropShadow_39_16" result="shape"/>
</filter>
<linearGradient id="paint0_linear_39_16" x1="1023.13" y1="1366.98" x2="1630.96" y2="453.491" gradientUnits="userSpaceOnUse">
<stop stop-color="#EFBC3E"/>
<stop offset="1" stop-color="#EFBC3E"/>
</linearGradient>
<linearGradient id="paint1_linear_39_16" x1="954.104" y1="613.853" x2="1412.74" y2="613.853" gradientUnits="userSpaceOnUse">
<stop stop-color="#EFBC3E"/>
<stop offset="1" stop-color="#EFBC3E"/>
</linearGradient>
</defs>
</svg>
