<svg width="51" height="50" viewBox="0 0 51 50" fill="none" xmlns="http://www.w3.org/2000/svg">
<g filter="url(#filter0_d_39_12)">
<path d="M22.3549 42.5258C34.2054 42.5258 43.8121 33.0061 43.8121 21.2629C43.8121 9.51972 34.2054 0 22.3549 0C10.5044 0 0.897705 9.51972 0.897705 21.2629C0.897705 33.0061 10.5044 42.5258 22.3549 42.5258Z" fill="url(#paint0_linear_39_12)"/>
<path d="M22.2092 38.7556C31.9102 38.7556 39.7744 30.9626 39.7744 21.3495C39.7744 11.7363 31.9102 3.94336 22.2092 3.94336C12.5082 3.94336 4.64404 11.7363 4.64404 21.3495C4.64404 30.9626 12.5082 38.7556 22.2092 38.7556Z" stroke="url(#paint1_linear_39_12)" stroke-width="0.985349"/>
<path d="M20.9423 5.67551V8.25527H19.6736V5.67551H20.9423ZM20.79 19.4878V21.7461H19.5298V19.4878H20.79ZM22.4817 16.815C22.4817 16.4767 22.4056 16.1722 22.2533 15.9015C22.1011 15.6308 21.8501 15.3827 21.5005 15.1572C21.1509 14.9316 20.6829 14.723 20.0965 14.5313C19.386 14.3114 18.7714 14.0435 18.2526 13.7277C17.7394 13.412 17.3419 13.0201 17.06 12.552C16.7837 12.084 16.6455 11.5173 16.6455 10.8519C16.6455 10.1584 16.7949 9.56065 17.0938 9.0588C17.3927 8.55694 17.8156 8.17069 18.3625 7.90002C18.9095 7.62936 19.5523 7.49403 20.291 7.49403C20.8662 7.49403 21.3793 7.58143 21.8304 7.75623C22.2815 7.9254 22.6621 8.17914 22.9723 8.51747C23.288 8.8558 23.5277 9.27025 23.6912 9.76083C23.8604 10.2514 23.945 10.8181 23.945 11.4609H22.3886C22.3886 11.0831 22.3435 10.7363 22.2533 10.4206C22.1631 10.1048 22.0278 9.83132 21.8473 9.60012C21.6669 9.36329 21.447 9.18285 21.1876 9.0588C20.9282 8.92911 20.6293 8.86426 20.291 8.86426C19.8174 8.86426 19.4255 8.94602 19.1153 9.10955C18.8108 9.27307 18.5853 9.50426 18.4387 9.80312C18.2921 10.0963 18.2187 10.4375 18.2187 10.8266C18.2187 11.1874 18.2921 11.5032 18.4387 11.7739C18.5853 12.0445 18.8334 12.2898 19.183 12.5098C19.5382 12.724 20.026 12.9355 20.6463 13.1441C21.3737 13.3753 21.9911 13.6488 22.4986 13.9646C23.0061 14.2747 23.3924 14.6581 23.6574 15.1149C23.9224 15.566 24.0549 16.127 24.0549 16.7981C24.0549 17.5255 23.8914 18.1401 23.5643 18.642C23.2373 19.1382 22.7777 19.516 22.1857 19.7754C21.5936 20.0347 20.9 20.1644 20.1049 20.1644C19.6256 20.1644 19.152 20.0996 18.684 19.9699C18.2159 19.8402 17.793 19.6288 17.4152 19.3355C17.0374 19.0367 16.7357 18.6448 16.5102 18.1598C16.2846 17.6693 16.1719 17.0687 16.1719 16.3582H17.7451C17.7451 16.8375 17.8128 17.2351 17.9481 17.5508C18.0891 17.861 18.2751 18.1091 18.5063 18.2952C18.7375 18.4756 18.9913 18.6053 19.2676 18.6843C19.5495 18.7576 19.8286 18.7942 20.1049 18.7942C20.6124 18.7942 21.041 18.7153 21.3906 18.5574C21.7458 18.3939 22.0165 18.1627 22.2026 17.8638C22.3886 17.5649 22.4817 17.2153 22.4817 16.815Z" fill="#EFBC3E"/>
</g>
<defs>
<filter id="filter0_d_39_12" x="0.897705" y="0" width="49.9143" height="49.5259" filterUnits="userSpaceOnUse" color-interpolation-filters="sRGB">
<feFlood flood-opacity="0" result="BackgroundImageFix"/>
<feColorMatrix in="SourceAlpha" type="matrix" values="0 0 0 0 0 0 0 0 0 0 0 0 0 0 0 0 0 0 127 0" result="hardAlpha"/>
<feOffset dx="4" dy="4"/>
<feGaussianBlur stdDeviation="1.5"/>
<feComposite in2="hardAlpha" operator="out"/>
<feColorMatrix type="matrix" values="0 0 0 0 0 0 0 0 0 0 0 0 0 0 0 0 0 0 0.25 0"/>
<feBlend mode="normal" in2="BackgroundImageFix" result="effect1_dropShadow_39_12"/>
<feBlend mode="normal" in="SourceGraphic" in2="effect1_dropShadow_39_12" result="shape"/>
</filter>
<linearGradient id="paint0_linear_39_12" x1="3456.8" y1="1840.94" x2="4643.8" y2="56.3468" gradientUnits="userSpaceOnUse">
<stop stop-color="#EFBC3E"/>
<stop offset="1" stop-color="#7A5BF5"/>
</linearGradient>
<linearGradient id="paint1_linear_39_12" x1="3063.09" y1="518.468" x2="3944.86" y2="518.468" gradientUnits="userSpaceOnUse">
<stop stop-color="#EFBC3E"/>
<stop offset="1" stop-color="#EFBC3E"/>
</linearGradient>
</defs>
</svg>
