<svg width="233" height="154" viewBox="0 0 233 154" fill="none" xmlns="http://www.w3.org/2000/svg">
<g filter="url(#filter0_d_39_3)">
<path d="M0.00866699 65.5826L21.874 64.1381C21.874 64.1381 26.2471 38.1373 43.7394 29.4704V0.580566C43.7394 0.580566 64.147 12.1365 68.5201 13.581C72.8932 15.0255 112.251 -3.7529 157.439 23.6924C195.5 46.8042 187.03 87.3511 183.401 99.5571C182.747 101.767 181.722 103.853 180.369 105.725C177.22 110.058 170.85 118.725 167.643 121.918C163.27 126.251 170.427 150.374 164.728 152.252C160.355 153.697 151.608 134.918 147.235 136.363C123.698 144.229 98.3373 145.013 74.3509 138.616C73.559 138.397 72.715 138.459 71.9644 138.792C71.2139 139.124 70.604 139.706 70.2402 140.436C68.2869 144.394 64.4095 151.645 61.2754 153.711C56.9024 156.6 56.9024 137.822 52.5293 134.933C48.1562 132.044 0.0524404 90.1534 0.0524404 90.1534L0.00866699 65.5826Z" fill="url(#paint0_linear_39_3)"/>
<path d="M182.978 70.0318C182.978 70.0318 200.878 57.4503 210.455 66.7962C220.032 76.142 218.531 85.8923 210.834 88.2179C205.091 89.9513 196.141 80.4177 200.004 74.2931C203.867 68.1684 210.616 64.8894 218.371 70.0318C226.126 75.1742 229.61 85.4879 230.032 91.2514" stroke="#7C377C" stroke-width="3.9414" stroke-miterlimit="10" stroke-linecap="round"/>
<path d="M46.6402 75.5785C51.1244 75.5785 54.7595 71.9762 54.7595 67.5326C54.7595 63.089 51.1244 59.4868 46.6402 59.4868C42.156 59.4868 38.5209 63.089 38.5209 67.5326C38.5209 71.9762 42.156 75.5785 46.6402 75.5785Z" fill="#7C377C"/>
<path d="M79.8171 18.5354C79.8171 18.5354 112.411 9.8685 133.562 19.4021" stroke="#7C377C" stroke-width="0.985349" stroke-linecap="round" stroke-linejoin="round"/>
</g>
<defs>
<filter id="filter0_d_39_3" x="0.00866699" y="0.580566" width="238.995" height="160.432" filterUnits="userSpaceOnUse" color-interpolation-filters="sRGB">
<feFlood flood-opacity="0" result="BackgroundImageFix"/>
<feColorMatrix in="SourceAlpha" type="matrix" values="0 0 0 0 0 0 0 0 0 0 0 0 0 0 0 0 0 0 127 0" result="hardAlpha"/>
<feOffset dx="4" dy="4"/>
<feGaussianBlur stdDeviation="1.5"/>
<feColorMatrix type="matrix" values="0 0 0 0 0 0 0 0 0 0 0 0 0 0 0 0 0 0 0.7 0"/>
<feBlend mode="hard-light" in2="BackgroundImageFix" result="effect1_dropShadow_39_3"/>
<feBlend mode="normal" in="SourceGraphic" in2="effect1_dropShadow_39_3" result="shape"/>
</filter>
<linearGradient id="paint0_linear_39_3" x1="163.634" y1="128.259" x2="13.4684" y2="18.1463" gradientUnits="userSpaceOnUse">
<stop stop-color="#7C377C"/>
<stop offset="1" stop-color="#8377DC"/>
</linearGradient>
</defs>
</svg>
