<svg width="233" height="280" viewBox="0 0 233 280" fill="none" xmlns="http://www.w3.org/2000/svg">
<g clip-path="url(#clip0_39_2)">
<g filter="url(#filter0_d_39_2)">
<path d="M0.00866699 191.583L21.874 190.138C21.874 190.138 26.2471 164.137 43.7394 155.47V126.581C43.7394 126.581 64.147 138.136 68.5201 139.581C72.8932 141.025 112.251 122.247 157.439 149.692C195.5 172.804 187.03 213.351 183.401 225.557C182.747 227.767 181.722 229.853 180.369 231.725C177.22 236.058 170.85 244.725 167.643 247.918C163.27 252.251 170.427 276.374 164.728 278.252C160.355 279.697 151.608 260.918 147.235 262.363C123.698 270.229 98.3373 271.013 74.3509 264.616C73.559 264.397 72.715 264.459 71.9644 264.792C71.2139 265.124 70.604 265.706 70.2402 266.436C68.2869 270.394 64.4095 277.645 61.2754 279.711C56.9024 282.6 56.9024 263.822 52.5293 260.933C48.1562 258.044 0.0524404 216.153 0.0524404 216.153L0.00866699 191.583Z" fill="url(#paint0_linear_39_2)"/>
<path d="M182.978 196.032C182.978 196.032 200.878 183.45 210.455 192.796C220.032 202.142 218.531 211.892 210.834 214.218C205.091 215.951 196.141 206.418 200.004 200.293C203.867 194.168 210.616 190.889 218.371 196.032C226.126 201.174 229.61 211.488 230.032 217.251" stroke="#7C377C" stroke-width="3.9414" stroke-miterlimit="10" stroke-linecap="round"/>
<path d="M46.6402 201.578C51.1244 201.578 54.7595 197.976 54.7595 193.533C54.7595 189.089 51.1244 185.487 46.6402 185.487C42.156 185.487 38.5209 189.089 38.5209 193.533C38.5209 197.976 42.156 201.578 46.6402 201.578Z" fill="#7C377C"/>
<path d="M79.8171 144.535C79.8171 144.535 112.411 135.869 133.562 145.402" stroke="#7C377C" stroke-width="0.985349" stroke-linecap="round" stroke-linejoin="round"/>
</g>
<g filter="url(#filter1_d_39_2)">
<path d="M107.382 112.439C125.383 112.439 139.976 97.9785 139.976 80.1404C139.976 62.3022 125.383 47.8416 107.382 47.8416C89.3809 47.8416 74.7881 62.3022 74.7881 80.1404C74.7881 97.9785 89.3809 112.439 107.382 112.439Z" fill="url(#paint1_linear_39_2)"/>
<path d="M107.163 106.705C121.896 106.705 133.839 94.8695 133.839 80.2704C133.839 65.6712 121.896 53.8362 107.163 53.8362C92.4307 53.8362 80.4875 65.6712 80.4875 80.2704C80.4875 94.8695 92.4307 106.705 107.163 106.705Z" stroke="url(#paint2_linear_39_2)" stroke-width="0.985349"/>
<path d="M105.257 56.1503V60.0698H103.329V56.1503H105.257ZM105.025 77.1358V80.567H103.111V77.1358H105.025ZM107.596 73.075C107.596 72.5609 107.48 72.0983 107.249 71.6871C107.017 71.2758 106.636 70.8989 106.105 70.5562C105.574 70.2135 104.863 69.8965 103.972 69.6052C102.892 69.2711 101.958 68.8641 101.17 68.3844C100.391 67.9046 99.7865 67.3092 99.3582 66.5981C98.9384 65.887 98.7285 65.026 98.7285 64.0151C98.7285 62.9613 98.9555 62.0532 99.4096 61.2907C99.8636 60.5282 100.506 59.9413 101.337 59.5301C102.168 59.1189 103.145 58.9132 104.267 58.9132C105.141 58.9132 105.921 59.046 106.606 59.3116C107.291 59.5686 107.87 59.9542 108.341 60.4682C108.821 60.9822 109.185 61.6119 109.433 62.3573C109.69 63.1026 109.819 63.9637 109.819 64.9403H107.454C107.454 64.3663 107.386 63.8394 107.249 63.3597C107.112 62.8799 106.906 62.4644 106.632 62.1131C106.358 61.7533 106.023 61.4791 105.629 61.2907C105.235 61.0936 104.781 60.9951 104.267 60.9951C103.548 60.9951 102.952 61.1193 102.481 61.3678C102.018 61.6162 101.676 61.9675 101.453 62.4215C101.23 62.867 101.119 63.3854 101.119 63.9765C101.119 64.5248 101.23 65.0046 101.453 65.4158C101.676 65.827 102.053 66.1997 102.584 66.5338C103.123 66.8594 103.865 67.1807 104.807 67.4977C105.912 67.8489 106.85 68.2644 107.621 68.7442C108.392 69.2154 108.979 69.798 109.382 70.4919C109.785 71.1773 109.986 72.0297 109.986 73.0492C109.986 74.1544 109.737 75.0883 109.241 75.8507C108.744 76.6047 108.045 77.1787 107.146 77.5728C106.246 77.9669 105.192 78.1639 103.984 78.1639C103.256 78.1639 102.537 78.0654 101.826 77.8683C101.114 77.6713 100.472 77.35 99.8979 76.9045C99.3239 76.4505 98.8655 75.855 98.5229 75.1182C98.1802 74.3729 98.0088 73.4605 98.0088 72.381H100.399C100.399 73.1092 100.502 73.7132 100.708 74.193C100.922 74.6642 101.204 75.0411 101.556 75.3239C101.907 75.598 102.292 75.7951 102.712 75.915C103.141 76.0264 103.565 76.0821 103.984 76.0821C104.756 76.0821 105.407 75.9621 105.938 75.7222C106.478 75.4738 106.889 75.1225 107.172 74.6685C107.454 74.2144 107.596 73.6832 107.596 73.075Z" fill="#EFBC3E"/>
</g>
<g filter="url(#filter2_d_39_2)">
<path d="M145.355 42.5258C157.205 42.5258 166.812 33.0061 166.812 21.2629C166.812 9.51972 157.205 0 145.355 0C133.504 0 123.898 9.51972 123.898 21.2629C123.898 33.0061 133.504 42.5258 145.355 42.5258Z" fill="url(#paint3_linear_39_2)"/>
<path d="M145.209 38.7556C154.91 38.7556 162.774 30.9626 162.774 21.3495C162.774 11.7363 154.91 3.94336 145.209 3.94336C135.508 3.94336 127.644 11.7363 127.644 21.3495C127.644 30.9626 135.508 38.7556 145.209 38.7556Z" stroke="url(#paint4_linear_39_2)" stroke-width="0.985349"/>
<path d="M143.942 5.67551V8.25527H142.674V5.67551H143.942ZM143.79 19.4878V21.7461H142.53V19.4878H143.79ZM145.482 16.815C145.482 16.4767 145.406 16.1722 145.253 15.9015C145.101 15.6308 144.85 15.3827 144.501 15.1572C144.151 14.9316 143.683 14.723 143.096 14.5313C142.386 14.3114 141.771 14.0435 141.253 13.7277C140.739 13.412 140.342 13.0201 140.06 12.552C139.784 12.084 139.646 11.5173 139.646 10.8519C139.646 10.1584 139.795 9.56065 140.094 9.0588C140.393 8.55694 140.816 8.17069 141.363 7.90002C141.91 7.62936 142.552 7.49403 143.291 7.49403C143.866 7.49403 144.379 7.58143 144.83 7.75623C145.282 7.9254 145.662 8.17914 145.972 8.51747C146.288 8.8558 146.528 9.27025 146.691 9.76083C146.86 10.2514 146.945 10.8181 146.945 11.4609H145.389C145.389 11.0831 145.344 10.7363 145.253 10.4206C145.163 10.1048 145.028 9.83132 144.847 9.60012C144.667 9.36329 144.447 9.18285 144.188 9.0588C143.928 8.92911 143.629 8.86426 143.291 8.86426C142.817 8.86426 142.425 8.94602 142.115 9.10955C141.811 9.27307 141.585 9.50426 141.439 9.80312C141.292 10.0963 141.219 10.4375 141.219 10.8266C141.219 11.1874 141.292 11.5032 141.439 11.7739C141.585 12.0445 141.833 12.2898 142.183 12.5098C142.538 12.724 143.026 12.9355 143.646 13.1441C144.374 13.3753 144.991 13.6488 145.499 13.9646C146.006 14.2747 146.392 14.6581 146.657 15.1149C146.922 15.566 147.055 16.127 147.055 16.7981C147.055 17.5255 146.891 18.1401 146.564 18.642C146.237 19.1382 145.778 19.516 145.186 19.7754C144.594 20.0347 143.9 20.1644 143.105 20.1644C142.626 20.1644 142.152 20.0996 141.684 19.9699C141.216 19.8402 140.793 19.6288 140.415 19.3355C140.037 19.0367 139.736 18.6448 139.51 18.1598C139.285 17.6693 139.172 17.0687 139.172 16.3582H140.745C140.745 16.8375 140.813 17.2351 140.948 17.5508C141.089 17.861 141.275 18.1091 141.506 18.2952C141.738 18.4756 141.991 18.6053 142.268 18.6843C142.55 18.7576 142.829 18.7942 143.105 18.7942C143.612 18.7942 144.041 18.7153 144.391 18.5574C144.746 18.3939 145.016 18.1627 145.203 17.8638C145.389 17.5649 145.482 17.2153 145.482 16.815Z" fill="#EFBC3E"/>
</g>
<g filter="url(#filter3_d_39_2)">
<path d="M68.5929 50.586C77.0702 50.586 83.9424 43.776 83.9424 35.3755C83.9424 26.975 77.0702 20.165 68.5929 20.165C60.1156 20.165 53.2434 26.975 53.2434 35.3755C53.2434 43.776 60.1156 50.586 68.5929 50.586Z" fill="url(#paint5_linear_39_2)"/>
<path d="M68.4762 47.8847C75.4158 47.8847 81.0415 42.31 81.0415 35.4332C81.0415 28.5564 75.4158 22.9817 68.4762 22.9817C61.5366 22.9817 55.9109 28.5564 55.9109 35.4332C55.9109 42.31 61.5366 47.8847 68.4762 47.8847Z" stroke="url(#paint6_linear_39_2)" stroke-width="0.985349"/>
<path d="M67.5851 24.7698V26.6158H66.6772V24.7698H67.5851ZM67.4761 34.6536V36.2697H66.5743V34.6536H67.4761ZM68.6866 32.741C68.6866 32.4989 68.6322 32.281 68.5232 32.0873C68.4143 31.8937 68.2347 31.7161 67.9845 31.5547C67.7344 31.3933 67.3994 31.244 66.9798 31.1068C66.4714 30.9495 66.0316 30.7578 65.6603 30.5318C65.2931 30.3059 65.0087 30.0254 64.8069 29.6905C64.6092 29.3556 64.5103 28.9501 64.5103 28.474C64.5103 27.9776 64.6173 27.5499 64.8311 27.1908C65.045 26.8317 65.3476 26.5553 65.739 26.3616C66.1304 26.1679 66.5904 26.0711 67.119 26.0711C67.5306 26.0711 67.8978 26.1336 68.2206 26.2587C68.5434 26.3798 68.8157 26.5613 69.0377 26.8034C69.2636 27.0455 69.4351 27.3421 69.5521 27.6932C69.6732 28.0442 69.7337 28.4497 69.7337 28.9097H68.62C68.62 28.6394 68.5878 28.3912 68.5232 28.1653C68.4586 27.9393 68.3618 27.7436 68.2327 27.5782C68.1036 27.4087 67.9462 27.2796 67.7606 27.1908C67.575 27.098 67.3611 27.0516 67.119 27.0516C66.7801 27.0516 66.4996 27.1101 66.2777 27.2271C66.0598 27.3441 65.8984 27.5096 65.7935 27.7234C65.6886 27.9333 65.6361 28.1774 65.6361 28.4558C65.6361 28.714 65.6886 28.94 65.7935 29.1337C65.8984 29.3274 66.0759 29.5029 66.3261 29.6603C66.5803 29.8136 66.9294 29.9649 67.3732 30.1142C67.8937 30.2796 68.3356 30.4753 68.6987 30.7013C69.0619 30.9232 69.3383 31.1976 69.5279 31.5245C69.7176 31.8473 69.8124 32.2487 69.8124 32.7289C69.8124 33.2494 69.6954 33.6893 69.4614 34.0484C69.2273 34.4035 68.8985 34.6738 68.4748 34.8594C68.0511 35.045 67.5548 35.1378 66.9858 35.1378C66.6429 35.1378 66.3039 35.0914 65.969 34.9986C65.6341 34.9058 65.3315 34.7545 65.0611 34.5447C64.7908 34.3308 64.5749 34.0504 64.4135 33.7034C64.2521 33.3523 64.1714 32.9226 64.1714 32.4142H65.2972C65.2972 32.7572 65.3456 33.0416 65.4424 33.2676C65.5433 33.4895 65.6765 33.6671 65.8419 33.8002C66.0073 33.9293 66.1889 34.0222 66.3866 34.0786C66.5884 34.1311 66.7881 34.1573 66.9858 34.1573C67.349 34.1573 67.6557 34.1008 67.9058 33.9879C68.1601 33.8708 68.3537 33.7054 68.4869 33.4915C68.62 33.2777 68.6866 33.0275 68.6866 32.741Z" fill="#EFBC3E"/>
</g>
</g>
<defs>
<filter id="filter0_d_39_2" x="-0.991333" y="125.581" width="237.995" height="159.432" filterUnits="userSpaceOnUse" color-interpolation-filters="sRGB">
<feFlood flood-opacity="0" result="BackgroundImageFix"/>
<feColorMatrix in="SourceAlpha" type="matrix" values="0 0 0 0 0 0 0 0 0 0 0 0 0 0 0 0 0 0 127 0" result="hardAlpha"/>
<feOffset dx="2" dy="2"/>
<feGaussianBlur stdDeviation="1.5"/>
<feColorMatrix type="matrix" values="0 0 0 0 0 0 0 0 0 0 0 0 0 0 0 0 0 0 0.7 0"/>
<feBlend mode="hard-light" in2="BackgroundImageFix" result="effect1_dropShadow_39_2"/>
<feBlend mode="normal" in="SourceGraphic" in2="effect1_dropShadow_39_2" result="shape"/>
</filter>
<filter id="filter1_d_39_2" x="74.7881" y="47.8416" width="72.188" height="71.5977" filterUnits="userSpaceOnUse" color-interpolation-filters="sRGB">
<feFlood flood-opacity="0" result="BackgroundImageFix"/>
<feColorMatrix in="SourceAlpha" type="matrix" values="0 0 0 0 0 0 0 0 0 0 0 0 0 0 0 0 0 0 127 0" result="hardAlpha"/>
<feOffset dx="4" dy="4"/>
<feGaussianBlur stdDeviation="1.5"/>
<feComposite in2="hardAlpha" operator="out"/>
<feColorMatrix type="matrix" values="0 0 0 0 0 0 0 0 0 0 0 0 0 0 0 0 0 0 0.25 0"/>
<feBlend mode="normal" in2="BackgroundImageFix" result="effect1_dropShadow_39_2"/>
<feBlend mode="normal" in="SourceGraphic" in2="effect1_dropShadow_39_2" result="shape"/>
</filter>
<filter id="filter2_d_39_2" x="123.898" y="0" width="49.9143" height="49.5259" filterUnits="userSpaceOnUse" color-interpolation-filters="sRGB">
<feFlood flood-opacity="0" result="BackgroundImageFix"/>
<feColorMatrix in="SourceAlpha" type="matrix" values="0 0 0 0 0 0 0 0 0 0 0 0 0 0 0 0 0 0 127 0" result="hardAlpha"/>
<feOffset dx="4" dy="4"/>
<feGaussianBlur stdDeviation="1.5"/>
<feComposite in2="hardAlpha" operator="out"/>
<feColorMatrix type="matrix" values="0 0 0 0 0 0 0 0 0 0 0 0 0 0 0 0 0 0 0.25 0"/>
<feBlend mode="normal" in2="BackgroundImageFix" result="effect1_dropShadow_39_2"/>
<feBlend mode="normal" in="SourceGraphic" in2="effect1_dropShadow_39_2" result="shape"/>
</filter>
<filter id="filter3_d_39_2" x="53.2434" y="20.165" width="37.699" height="37.4209" filterUnits="userSpaceOnUse" color-interpolation-filters="sRGB">
<feFlood flood-opacity="0" result="BackgroundImageFix"/>
<feColorMatrix in="SourceAlpha" type="matrix" values="0 0 0 0 0 0 0 0 0 0 0 0 0 0 0 0 0 0 127 0" result="hardAlpha"/>
<feOffset dx="4" dy="4"/>
<feGaussianBlur stdDeviation="1.5"/>
<feComposite in2="hardAlpha" operator="out"/>
<feColorMatrix type="matrix" values="0 0 0 0 0 0 0 0 0 0 0 0 0 0 0 0 0 0 0.25 0"/>
<feBlend mode="normal" in2="BackgroundImageFix" result="effect1_dropShadow_39_2"/>
<feBlend mode="normal" in="SourceGraphic" in2="effect1_dropShadow_39_2" result="shape"/>
</filter>
<linearGradient id="paint0_linear_39_2" x1="163.634" y1="254.259" x2="13.4684" y2="144.146" gradientUnits="userSpaceOnUse">
<stop stop-color="#7C377C"/>
<stop offset="1" stop-color="#8377DC"/>
</linearGradient>
<linearGradient id="paint1_linear_39_2" x1="2977.61" y1="6434.61" x2="5716.69" y2="2317.35" gradientUnits="userSpaceOnUse">
<stop stop-color="#F4BB2E"/>
<stop offset="1" stop-color="#EFBC3E"/>
</linearGradient>
<linearGradient id="paint2_linear_39_2" x1="2999.35" y1="2991.73" x2="5005.36" y2="2991.73" gradientUnits="userSpaceOnUse">
<stop stop-color="#F9DA8E"/>
<stop offset="0.9999" stop-color="#F9FE15"/>
<stop offset="1" stop-color="#7A5BF5"/>
</linearGradient>
<linearGradient id="paint3_linear_39_2" x1="3579.8" y1="1840.94" x2="4766.8" y2="56.3468" gradientUnits="userSpaceOnUse">
<stop stop-color="#EFBC3E"/>
<stop offset="1" stop-color="#7A5BF5"/>
</linearGradient>
<linearGradient id="paint4_linear_39_2" x1="3186.09" y1="518.468" x2="4067.86" y2="518.468" gradientUnits="userSpaceOnUse">
<stop stop-color="#EFBC3E"/>
<stop offset="1" stop-color="#EFBC3E"/>
</linearGradient>
<linearGradient id="paint5_linear_39_2" x1="1076.13" y1="1386.98" x2="1683.96" y2="473.491" gradientUnits="userSpaceOnUse">
<stop stop-color="#EFBC3E"/>
<stop offset="1" stop-color="#EFBC3E"/>
</linearGradient>
<linearGradient id="paint6_linear_39_2" x1="1007.1" y1="633.853" x2="1465.74" y2="633.853" gradientUnits="userSpaceOnUse">
<stop stop-color="#EFBC3E"/>
<stop offset="1" stop-color="#EFBC3E"/>
</linearGradient>
<clipPath id="clip0_39_2">
<rect width="233" height="280" fill="white"/>
</clipPath>
</defs>
</svg>
